<svg id="Capa_1" enable-background="new 0 0 512 512" height="512" viewBox="0 0 512 512" width="512" xmlns="http://www.w3.org/2000/svg"><g><g><g><g><path d="m199.246 477.858h74.496v-128.837h-239.404v128.837h74.495" fill="#d1aee5"/></g><path d="m198.224 349.021h-88.369c-55.148 0-99.855-44.707-99.855-99.856v-91.189c0-68.392 55.443-123.835 123.835-123.835h40.41c68.392 0 123.835 55.443 123.835 123.835v91.189c0 55.149-44.707 99.856-99.856 99.856z" fill="#fff2a0"/><g><g fill="#faf7f5"><path d="m154.245 349.021h79.426l-34.091 49.003z"/><path d="m154.245 349.021h-79.836l34.502 49.003z"/></g><path d="m154.245 415.009-23.788-38.47 23.788-27.518 23.788 27.518z" fill="#ff7d97"/></g><g><g><g><path d="m72.205 165.763h-18.03v47.35c0 55.154 44.711 99.865 99.865 99.865 55.154 0 99.865-44.711 99.865-99.865v-47.35h-18.03c-28.124 0-52.935-6.721-67.665-22.689l-14.17-13.693-14.17 13.693c-14.731 15.968-39.541 22.689-67.665 22.689z" fill="#ffdcd5"/></g></g><g><path d="m134.311 314.029v34.992h39.458v-34.992" fill="#ffdcd5"/></g></g></g><g><path d="m419.25 97.012 50.924 76.417h-23.486v304.429h-54.894v-304.429h-23.469z" fill="#ccf5fc"/><path d="m336.9 259.82h54.894v218.037h-54.894z" fill="#ff7d97"/><g><g><path d="m446.688 214.432h55.312v263.426h-55.312z" fill="#fff7bf"/></g></g></g></g><g><g><path d="m202.659 231.999c-2.559 0-5.118-.976-7.071-2.929-4.107-4.106-6.369-9.567-6.369-15.376 0-5.808 2.262-11.269 6.369-15.375 3.904-3.906 10.237-3.907 14.142-.001 3.905 3.905 3.906 10.236 0 14.142-.422.423-.511.905-.511 1.234 0 .33.089.812.511 1.233 3.905 3.905 3.906 10.236 0 14.142-1.952 1.953-4.512 2.93-7.071 2.93z"/></g><g><path d="m105.421 231.999c-2.56 0-5.119-.977-7.072-2.93-3.905-3.905-3.904-10.237.001-14.143.422-.422.511-.902.511-1.232 0-.329-.089-.812-.512-1.233-3.905-3.905-3.905-10.237 0-14.143 3.905-3.904 10.237-3.904 14.143 0 4.107 4.107 6.369 9.568 6.369 15.376 0 5.809-2.262 11.27-6.37 15.377-1.952 1.951-4.512 2.928-7.07 2.928z"/></g><path d="m502 204.432h-45.312v-21.003h13.485c3.688 0 7.076-2.029 8.816-5.28s1.55-7.196-.495-10.266l-50.924-76.417c-1.854-2.782-4.978-4.454-8.321-4.454s-6.467 1.672-8.321 4.454l-50.925 76.417c-2.045 3.069-2.235 7.014-.495 10.266 1.74 3.251 5.129 5.28 8.816 5.28h13.469v66.391h-44.895c-5.522 0-10 4.478-10 10v218.038c0 5.522 4.478 10 10 10h165.102c5.522 0 10-4.478 10-10v-263.426c0-5.522-4.478-10-10-10zm-155.101 65.388h34.895v198.038h-34.895zm54.895-96.391c0-5.522-4.478-10-10-10h-4.788l32.244-48.384 32.243 48.384h-4.805c-5.522 0-10 4.478-10 10v294.429h-34.895v-294.429zm90.206 294.429h-35.312v-243.426h35.312z"/><g><path d="m154.04 275.998c-6.965 0-13.929-2.651-19.231-7.953-3.905-3.905-3.905-10.237 0-14.143 3.905-3.904 10.237-3.904 14.143 0 2.806 2.807 7.372 2.808 10.177 0 3.905-3.904 10.237-3.904 14.143 0 3.905 3.905 3.905 10.237 0 14.143-5.303 5.301-12.268 7.953-19.232 7.953z"/></g><path d="m308.08 249.166v-91.189c0-73.797-60.038-133.835-133.835-133.835h-40.41c-73.797-.001-133.835 60.037-133.835 133.834v91.189c0 37.095 18.482 69.955 46.721 89.855h-12.383c-5.523 0-10 4.478-10 10v128.837c0 5.522 4.477 10 10 10h74.496c5.523 0 10-4.478 10-10s-4.477-10-10-10h-64.496v-108.836h24.882l31.514 44.76c1.738 2.469 4.499 4.021 7.512 4.221.223.016.444.022.666.022 2.777 0 5.441-1.156 7.34-3.209l11.948-12.915 17.541 28.368c1.822 2.947 5.041 4.741 8.505 4.741s6.683-1.794 8.505-4.741l17.541-28.368 11.948 12.915c1.899 2.053 4.563 3.209 7.339 3.209.23 0 .462-.008.694-.024 3.022-.21 5.786-1.778 7.516-4.265l31.108-44.714h24.846v108.837h-64.497c-5.523 0-10 4.478-10 10s4.477 10 10 10h74.497c5.522 0 10-4.478 10-10v-128.837c0-5.522-4.478-10-10-10h-12.383c28.238-19.9 46.72-52.76 46.72-89.855zm-198.112 132.99-16.288-23.135h37.691zm-45.793-206.393h8.03c26.33 0 47.681-5.396 63.458-16.038 7.628-5.145 13.778-11.475 18.377-18.844 4.599 7.369 10.749 13.699 18.377 18.844 15.777 10.643 37.128 16.038 63.458 16.038h8.03v37.35c0 49.552-40.313 89.865-89.865 89.865s-89.865-40.313-89.865-89.865zm80.136 146.788c3.206.283 6.451.427 9.729.427s6.523-.145 9.729-.427v16.47h-19.458zm9.934 73.444-11.421-18.471 11.421-13.212 11.421 13.212zm44.229-13.892-21.354-23.082h37.413zm-.25-43.082h-14.455v-20.13c46.183-12.997 80.136-55.497 80.136-105.779v-70.038c0-5.522-4.478-10-10-10s-10 4.478-10 10v12.688h-8.03c-21.959 0-40.035-4.363-52.274-12.618-13.163-8.879-19.561-21.941-19.561-39.936 0-5.522-4.477-10-10-10s-10 4.478-10 10c0 17.994-6.398 31.057-19.561 39.936-12.239 8.255-30.315 12.618-52.274 12.618h-8.03v-12.688c0-5.522-4.477-10-10-10s-10 4.478-10 10v70.038c0 50.282 33.953 92.782 80.136 105.779v20.13h-14.456c-49.546 0-89.855-40.309-89.855-89.855v-91.189c0-62.769 51.066-113.836 113.835-113.836h40.41c62.769 0 113.835 51.066 113.835 113.835v91.189c0 49.547-40.309 89.856-89.856 89.856z"/><g><path d="m153.86 487.859c-4.235 0-8.108-2.785-9.47-6.789-1.367-4.017.028-8.559 3.384-11.144 3.182-2.451 7.613-2.708 11.086-.715 3.555 2.04 5.547 6.23 4.86 10.277-.808 4.757-5.015 8.371-9.86 8.371z"/></g></g></g></svg>